<svg width="22" height="22" viewBox="0 0 22 22" fill="none" xmlns="http://www.w3.org/2000/svg">
<path d="M11 0C8.01256 0 7.63715 0.0130737 6.46422 0.0663017C5.29408 0.118596 4.49469 0.305361 3.79429 0.578038C3.07055 0.858186 2.457 1.23452 1.84625 1.84617C1.23364 2.45876 0.858222 3.07229 0.576195 3.79413C0.30444 4.4945 0.118601 5.29292 0.0663045 6.46394C0.0121403 7.63683 0 8.01316 0 10.9995C0 13.9878 0.0130742 14.3622 0.0663045 15.5351C0.118601 16.7052 0.30444 17.5064 0.576195 18.2049C0.858222 18.9286 1.23364 19.5422 1.84625 20.1529C2.457 20.7655 3.07055 21.1409 3.79429 21.4229C4.49469 21.6946 5.29315 21.8805 6.46422 21.9346C7.63715 21.9869 8.0135 22 11 22C13.9865 22 14.3628 21.9869 15.5358 21.9346C16.7059 21.8805 17.5053 21.6956 18.2057 21.4229C18.9295 21.1409 19.543 20.7655 20.1537 20.1529C20.7664 19.5422 21.1418 18.9286 21.4238 18.2049C21.6956 17.5064 21.8814 16.7061 21.9337 15.5351C21.9879 14.3622 22 13.9878 22 10.9995C22 8.01222 21.9869 7.63683 21.9337 6.46394C21.8814 5.29386 21.6956 4.4945 21.4238 3.79413C21.1418 3.07135 20.7664 2.45783 20.1537 1.84617C19.543 1.23358 18.9295 0.858186 18.2057 0.578038C17.5053 0.306295 16.7069 0.118596 15.5358 0.0663017C14.3628 0.0121398 13.9865 0 11 0ZM11 1.98251C13.9379 1.98251 14.2844 1.99372 15.4452 2.04601C16.5182 2.0955 17.1 2.27387 17.4885 2.42421C18.0012 2.62405 18.3673 2.86218 18.7529 3.24785C19.1386 3.63352 19.3768 3.99864 19.5766 4.51318C19.727 4.89978 19.9072 5.48249 19.9548 6.55546C20.009 7.7162 20.0183 8.06358 20.0183 11.0005C20.0183 13.9373 20.0081 14.2866 19.9548 15.4455C19.9063 16.5184 19.727 17.1002 19.5766 17.4887C19.3768 18.0014 19.1386 18.3684 18.7529 18.7531C18.3673 19.1388 18.0021 19.3769 17.4885 19.5767C17.1 19.7271 16.5182 19.9073 15.4452 19.9549C14.2844 20.0091 13.937 20.0203 11 20.0203C8.06299 20.0203 7.71373 20.0091 6.5548 19.9549C5.48179 19.9064 4.89999 19.7271 4.5115 19.5767C3.99881 19.3769 3.63274 19.1388 3.24705 18.7531C2.86136 18.3693 2.62323 18.0023 2.42338 17.4887C2.27303 17.1002 2.09279 16.5184 2.04517 15.4455C1.991 14.2866 1.98166 13.9373 1.98166 11.0005C1.98166 8.06358 1.99193 7.7162 2.04517 6.55546C2.09373 5.48249 2.27303 4.90072 2.42338 4.51318C2.62323 3.99864 2.86136 3.63352 3.24705 3.24785C3.63274 2.86218 3.99788 2.62405 4.5115 2.42421C4.89999 2.27387 5.48179 2.0955 6.5548 2.04601C7.7156 1.99372 8.06299 1.98251 11 1.98251Z" fill="black"/>
<path d="M10.9999 14.6674C8.97533 14.6674 7.33266 13.0248 7.33266 11.0003C7.33266 8.97574 8.97533 7.33407 10.9999 7.33407C13.0246 7.33407 14.6672 8.97481 14.6672 11.0003C14.6672 13.0257 13.0246 14.6674 10.9999 14.6674ZM10.9999 5.35156C7.8799 5.35156 5.35193 7.8813 5.35193 10.9993C5.35193 14.1193 7.8799 16.649 10.9999 16.649C14.12 16.649 16.648 14.1193 16.648 10.9993C16.648 7.88036 14.12 5.35156 10.9999 5.35156Z" fill="black"/>
<path d="M18.1927 5.12853C18.1927 5.85692 17.6015 6.44896 16.8722 6.44896C16.1437 6.44896 15.5526 5.85692 15.5526 5.12853C15.5526 4.40015 16.1437 3.80811 16.8722 3.80811C17.6015 3.80811 18.1927 4.40015 18.1927 5.12853Z" fill="black"/>
</svg>
