<svg width="22" height="22" viewBox="0 0 22 22" fill="none" xmlns="http://www.w3.org/2000/svg">
<path d="M11.0009 0C4.92443 0 0 4.92371 0 10.9995C0 15.5048 2.70862 19.3712 6.58512 21.0748C6.55351 20.3067 6.57768 19.3833 6.77574 18.5483C6.98681 17.6565 8.19096 12.5552 8.19096 12.5552C8.19096 12.5552 7.83948 11.8522 7.83948 10.8136C7.83948 9.18348 8.78419 7.9672 9.96137 7.9672C10.9619 7.9672 11.4435 8.71668 11.4435 9.61774C11.4435 10.6257 10.8029 12.1265 10.4728 13.5223C10.1975 14.6893 11.0576 15.6415 12.2088 15.6415C14.2935 15.6415 15.6957 12.9644 15.6957 9.79162C15.6957 7.38138 14.0731 5.57741 11.119 5.57741C7.78276 5.57741 5.7027 8.06484 5.7027 10.8433C5.7027 11.8029 5.98631 12.479 6.42984 13.0025C6.63347 13.2433 6.65951 13.3391 6.58884 13.6162C6.53398 13.8171 6.41403 14.3062 6.36382 14.4977C6.29036 14.7776 6.06441 14.8762 5.81336 14.7748C4.2754 14.1472 3.55943 12.4632 3.55943 10.5699C3.55943 7.44554 6.19459 3.69906 11.4221 3.69906C15.6232 3.69906 18.3857 6.73883 18.3857 10.0008C18.3857 14.3164 15.9858 17.5412 12.4505 17.5412C11.2631 17.5412 10.1464 16.8978 9.76424 16.1687C9.76424 16.1687 9.12451 18.7026 8.98969 19.1927C8.75723 20.0398 8.29975 20.8888 7.88318 21.5499C8.87253 21.841 9.91767 22 11.0019 22C17.0765 22 22 17.0754 22 11.0005C22 4.92371 17.0765 0.000929811 11.0019 0.000929811L11.0009 0Z" fill="black"/>
</svg>
