<svg width="32" height="32" viewBox="0 0 32 32" fill="none" xmlns="http://www.w3.org/2000/svg">
<path d="M18.8774 20.2056L29.8674 32L31.9999 30.3883L21.01 18.594L18.8774 20.2056Z" fill="black"/>
<path d="M12.6799 2.79818C7.40131 2.79818 3.10796 6.87177 3.10796 11.8794C3.10796 16.887 7.40131 20.9606 12.6799 20.9606C17.9585 20.9606 22.2519 16.887 22.2519 11.8794C22.2519 6.87177 17.9585 2.79818 12.6799 2.79818ZM12.6799 23.7613C5.68735 23.7613 0 18.4317 0 11.8807C0 5.32968 5.68876 0 12.6799 0C19.6725 0 25.3612 5.32968 25.3612 11.8807C25.3612 18.4317 19.6725 23.7613 12.6799 23.7613Z" fill="black"/>
</svg>
